<?xml version="1.0" encoding="utf-8"?>
<!-- Generator: Adobe Illustrator 17.0.0, SVG Export Plug-In . SVG Version: 6.00 Build 0)  -->
<!DOCTYPE svg PUBLIC "-//W3C//DTD SVG 1.1//EN" "http://www.w3.org/Graphics/SVG/1.1/DTD/svg11.dtd">
<svg version="1.1" id="Layer_1" xmlns="http://www.w3.org/2000/svg" xmlns:xlink="http://www.w3.org/1999/xlink" x="0px" y="0px"
	 width="191.561px" height="232.147px" viewBox="0 0 191.561 232.147" enable-background="new 0 0 191.561 232.147"
	 xml:space="preserve">
<path fill="#414042" d="M160.849,64.84l9.37-33.314L136.905,0.814l-28.109,42.163l-13.274-9.37l-14.835,8.849L54.66,0.814
	L21.867,31.525l7.288,31.753l-29.67,72.354l59.861,47.889l4.164,33.835l31.753,14.79l32.273-15.311l2.603-31.753l61.423-49.971
	L160.849,64.84z M166.575,145.522l-26.808,21.862l24.986-50.882l-32.013,50.882l2.082-30.711l-14.315,75.217l-25.246,10.15
	L71.057,211.37l-15.356-72.875l1.301,28.89L25.51,117.414l24.465,49.971L22.127,143.44l-6.507-15.096l0.781,12.233l-8.329-8.589
	l22.383-64.807l3.904,12.753l-7.808-47.629l7.288-6.246l7.548,30.712l-1.301-35.917l14.054-9.89l24.725,32.273l-17.178,8.849
	l-10.931-9.63l8.589,11.972l-7.548,26.027L64.811,55.21l30.451-14.315l30.712,15.096l12.233,23.945l-7.027-26.287l7.288-10.671
	l-10.931,9.63l-15.356-9.89l24.725-31.753l14.054,10.671l-1.301,34.095l6.767-29.15l7.548,5.205l-6.767,49.451l2.863-13.534
	l22.383,64.546l-8.849,6.767l1.822-12.753L166.575,145.522z"/>
<polygon fill="#BE1E2D" points="44.098,105.181 59.194,112.208 62.837,123.66 66.221,116.48 77.673,121.318 83.919,140.577 
	72.467,130.687 52.166,126.263 "/>
<polygon fill="#BE1E2D" points="146.123,105.181 131.027,112.208 127.384,123.66 124,116.48 112.548,121.318 106.302,140.577 
	117.754,130.687 138.055,126.263 "/>
<polygon fill="#414042" points="76.132,164.782 93.31,170.508 98.255,170.508 114.912,164.782 95.913,183.001 "/>
<polygon fill="#414042" stroke="#231F20" stroke-miterlimit="10" points="76.783,200.441 78.343,203.307 111.659,203.307 
	114.262,200.441 "/>
</svg>
